# xmcd
#
# Track frame offsets:
#	150
#	20360
#	38257
#	58920
#	78537
#
# Disc length: 1280 seconds
#
# Revision: 0
# Processed by: cddbd v1.4PL0 Copyright (c) Steve Scherf et al.
# Submitted via: dBpowerAMP V4.0
#
DISCID=3204fe05
DTITLE=Michael Bolton - Warm And Tender Love
DYEAR=1900
DGENRE=Pop
TTITLE0=Soul Provider
TTITLE1=That's What Love Is All About 
TTITLE2=Missing You Now
TTITLE3=What You Won't Do For Love
TTITLE4=Warm And Tender Love
EXTD=
EXTT0=
EXTT1=
EXTT2=
EXTT3=
EXTT4=
PLAYORDER=
